<?xml version="1.0" encoding="UTF-8"?><svg id="Artwork" xmlns="http://www.w3.org/2000/svg" viewBox="0 0 431.3 382.3"><polygon points="77.84 282.61 77.84 304.01 55.38 304.01 55.38 282.61 45.43 282.61 45.43 337.35 55.38 337.35 55.38 313.51 77.84 313.51 77.84 337.35 87.8 337.35 87.8 282.61 77.84 282.61"/><polygon points="97.22 337.35 97.22 282.61 134.57 282.61 134.57 291.64 107.15 291.64 107.15 304.4 131.09 304.4 131.09 313.35 107.15 313.35 107.15 328.32 134.57 328.32 134.57 337.35 97.22 337.35"/><polygon points="175.71 337.35 163.45 317.44 151.18 337.35 140.45 337.35 157.66 309.48 140.6 282.61 151.47 282.61 163.74 301.77 175.65 282.61 186.46 282.61 169.63 309.56 186.68 337.35 175.71 337.35"/><path d="M212.65,294.82l-7.78,23.09h15.59l-7.8-23.09ZM227.09,337.35l-3.56-10.49h-21.77l-3.53,10.49h-10.03l19.22-54.74h10.86l19.22,54.74h-10.42Z"/><path d="M321.75,294.26c-2.18-2.31-5.52-3.61-8.67-3.61s-6.48,1.31-8.63,3.61c-3.77,3.95-3.93,10.75-3.93,15.76s.16,11.73,3.93,15.67c2.15,2.31,5.49,3.64,8.63,3.64s6.49-1.31,8.67-3.64c3.77-3.93,3.93-10.65,3.93-15.67s-.16-11.81-3.93-15.76h0ZM328.82,332.17c-4.15,4.16-9.87,6.18-15.75,6.18s-11.56-2.01-15.75-6.18c-5.94-5.94-6.96-13.19-6.96-22.14s1.01-16.3,6.96-22.24c4.18-4.16,9.89-6.18,15.75-6.18s11.59,2.01,15.75,6.18c5.94,5.94,6.95,13.27,6.95,22.24s-1.01,16.2-6.95,22.14h0Z"/><polygon points="376.89 337.35 353.19 299.75 353.19 337.35 343.4 337.35 343.4 282.61 353.97 282.61 377.35 319.67 377.35 282.61 387.15 282.61 387.15 337.35 376.89 337.35"/><path d="M283.53,307.34v10.5c0,12.39-8.96,20.51-21.29,20.51-8.59,0-15.45-3.12-19.7-10.87-2.96-5.46-3.58-11.4-3.58-17.52,0-8.34.93-15.77,7.1-21.96,4.21-4.21,10.36-6.4,16.26-6.4,9.28,0,16.64,4.59,19.72,12.14l-8.66,4.99c-.5-1.67-1.37-3.32-2.67-4.71-2.25-2.41-5.02-3.5-8.48-3.5-4.87,0-9.2,2.62-11.16,7.07-1.75,3.98-2.01,8.09-2.01,12.36,0,5.14.67,12.13,4.33,15.95,2.49,2.72,6.39,3.48,8.85,3.48,3.46,0,6.15-1.07,8.4-3.48,2.18-2.34,3.14-5.36,3.24-8.07.02-.71,0-1.49,0-2.25h-13.02v-8.26h22.68v.02Z"/><path d="M296.08,91.8c-17.58,10.15-76.55,44.18-76.55,44.18h0V47.65c0-2.52-2.71-4.08-4.89-2.83-16.73,9.65-71.26,41.1-81.4,46.94-1.03.6-1.63,1.63-1.63,2.83v93.98c0,1.8,1.47,3.26,3.26,3.26h52.34c3.2,5.52,20.76,35.87,26.24,45.33.9,1.56,2.89,2.09,4.45,1.19,13.47-7.77,71-40.98,81.44-47,1.03-.6,1.63-1.62,1.63-2.82v-93.92c0-2.52-2.71-4.08-4.89-2.83ZM138.13,185.32v-78.53l45.33,78.53h-45.33ZM213.02,223.38l-73.69-127.57,73.69-42.51v170.08ZM219.54,229.91v-38.07h66.02l-66.02,38.07ZM294.46,185.31h-74.92v-41.82l74.92-43.23v85.06Z"/></svg>