<?xml version="1.0" encoding="UTF-8"?><svg id="Layer_1" xmlns="http://www.w3.org/2000/svg" viewBox="0 0 500 300"><defs><style>.cls-1{fill:#0f69ff;}</style></defs><path class="cls-1" d="M120.8,102.49v20.34h13.97v15.73h-13.97v42.29c0,3.22.66,5.52,2,6.91,1.33,1.38,3.12,2.07,5.37,2.07,1.18,0,2.19-.06,3.03-.19.84-.13,1.83-.34,2.95-.65l1.92,16.19c-2.25.77-4.45,1.34-6.6,1.73-2.15.38-4.48.58-6.98.58-7.73,0-13.67-2.12-17.84-6.37-4.17-4.24-6.25-10.97-6.25-20.18v-42.36h-12.13v-15.73h12.13v-20.34h22.41Z"/><path class="cls-1" d="M172.6,102.95h-22.41v-16.81h22.41v16.81ZM172.6,205.86h-22.41v-83.04h22.41v83.04Z"/><path class="cls-1" d="M187.1,175.78c0-6.04,1.66-11.24,4.99-15.62,3.33-4.38,8.39-8.94,15.2-13.7-3.48-4.71-6.08-9-7.79-12.89-1.71-3.89-2.57-7.85-2.57-11.89,0-8.85,2.76-15.93,8.29-21.22,5.52-5.3,12.92-7.94,22.18-7.94,8.13,0,14.75,2.52,19.84,7.56,5.09,5.04,7.64,11.14,7.64,18.3,0,5.01-1.26,9.59-3.76,13.74-2.51,4.14-5.93,7.78-10.28,10.9l-7.14,5.07,21.18,24.71c1.84-3.07,3.27-6.4,4.3-9.98,1.02-3.58,1.53-7.37,1.53-11.36h16.73c0,7.06-.87,13.56-2.61,19.49-1.74,5.94-4.4,11.21-7.98,15.81l15.96,18.73-.15.38h-24.86l-5.91-6.83c-4.35,2.81-8.82,4.92-13.43,6.33-4.6,1.41-9.54,2.11-14.81,2.11-11.16,0-20.03-2.93-26.63-8.79-6.6-5.86-9.9-13.49-9.9-22.91ZM224.78,190.2c2.71,0,5.42-.34,8.13-1.03,2.71-.69,5.32-1.72,7.83-3.1l-23.02-26.64-1.46.99c-2.61,2.45-4.39,4.84-5.33,7.16-.95,2.32-1.42,4.66-1.42,7,0,4.54,1.41,8.28,4.22,11.21,2.81,2.94,6.5,4.4,11.05,4.4ZM216.96,121.44c0,2.2.55,4.46,1.65,6.79,1.1,2.33,2.75,4.9,4.95,7.71l6.6-4.3c2.87-1.84,4.8-3.73,5.79-5.68,1-1.94,1.5-4.07,1.5-6.37,0-2.56-.93-4.83-2.8-6.83-1.87-1.99-4.31-2.99-7.33-2.99-3.33,0-5.88,1.11-7.67,3.34-1.79,2.22-2.69,5-2.69,8.33Z"/><path class="cls-1" d="M315.11,122.82l.92,10.97c2.66-3.99,6-7.07,10.01-9.25,4.02-2.17,8.66-3.26,13.93-3.26s9.87,1.18,13.66,3.53c3.79,2.35,6.65,5.91,8.6,10.67,2.56-4.45,5.88-7.93,9.98-10.44,4.09-2.51,8.9-3.76,14.43-3.76,8.18,0,14.64,2.83,19.38,8.48,4.73,5.65,7.1,14.26,7.1,25.82v50.27h-22.41v-50.46c0-6.31-1.02-10.69-3.07-13.15-2.05-2.46-5.09-3.69-9.13-3.69-3.17,0-5.92.7-8.25,2.12-2.33,1.41-4.19,3.37-5.56,5.88,0,.97.02,1.81.08,2.5.05.69.07,1.4.07,2.12v54.69h-22.33v-50.46c0-6.15-1.02-10.5-3.07-13.04-2.05-2.54-5.12-3.81-9.21-3.81-3.02,0-5.67.58-7.94,1.73-2.28,1.15-4.16,2.78-5.64,4.88v60.69h-22.33v-83.04h20.8Z"/></svg>